<?xml version="1.0" encoding="UTF-8" standalone="no"?>
<!-- Created with Inkscape (http://www.inkscape.org/) -->

<svg
   version="1.1"
   id="svg1"
   width="213.33333"
   height="170.66667"
   viewBox="0 0 213.33333 170.66667"
   sodipodi:docname="lcarsframeblank.svg"
   xml:space="preserve"
   inkscape:version="1.3.2 (091e20e, 2023-11-25)"
   xmlns:inkscape="http://www.inkscape.org/namespaces/inkscape"
   xmlns:sodipodi="http://sodipodi.sourceforge.net/DTD/sodipodi-0.dtd"
   xmlns="http://www.w3.org/2000/svg"
   xmlns:svg="http://www.w3.org/2000/svg"><defs
     id="defs1" /><sodipodi:namedview
     id="namedview1"
     pagecolor="#ffffff"
     bordercolor="#000000"
     borderopacity="0.25"
     inkscape:showpageshadow="2"
     inkscape:pageopacity="0.0"
     inkscape:pagecheckerboard="0"
     inkscape:deskcolor="#d1d1d1"
     inkscape:zoom="9.241002"
     inkscape:cx="31.111345"
     inkscape:cy="40.417695"
     inkscape:window-width="1920"
     inkscape:window-height="1011"
     inkscape:window-x="1600"
     inkscape:window-y="32"
     inkscape:window-maximized="1"
     inkscape:current-layer="g1" /><g
     inkscape:groupmode="layer"
     inkscape:label="Image"
     id="g1"><path
       d="m 170.47169,164.89027 v -2.73988 l 35.29779,-0.045 1.54168,0.9371 1.16052,1.84773 -0.6661,1.02948 -2.0361,1.29165 -35.29779,0.41881 z"
       style="fill:#ff9359;fill-opacity:1"
       id="path1-3"
       sodipodi:nodetypes="ccccccccc" /><path
       d="M 1.3914441,38.009672 V 17.211177 l 1.1137756,-5.055938 2.720597,-4.482545 3.5968149,-3.3958262 5.3502974,-1.8825506 16.54859,0.1278714 1.270456,0.046649 V 5.3551673 L 31.973685,20.452238 H 31.42415 l -19.062336,0.621654 -0.443772,0.914219 -0.137568,3.245782 -0.07437,10.766519 v 22.895014 l -3.6344086,0.0023 -6.5999631,0.0093 z"
       style="fill:#ff9302;fill-opacity:1"
       id="path1-9"
       sodipodi:nodetypes="ccccccccccccccccccc" /><path
       style="fill:#ffca91;fill-opacity:1"
       d="M 1.3993007,92.620605 11.571951,92.406207 Z"
       id="path4"
       sodipodi:nodetypes="ccc" /><path
       d="m 10.516829,166.41097 -3.953185,-3.16118 -3.713093,-4.01402 -1.267592,-4.1536 -0.005,-14.33334 -0.005,-14.33333 5.6269521,0.0194 4.6876399,0.0679 v 14.08766 14.08765 l 0.241472,5.25192 1.502597,2.26576 18.248329,0.25425 2.359676,-0.0753 10.333333,0.0204 10.333333,0.0204 v 2.66667 2.66667 l -19.666666,-0.0304 -19.666666,-0.0304 z"
       style="fill:#ff9359;fill-opacity:1"
       id="path1-97"
       sodipodi:nodetypes="ccccccccccccccccccccc" /><path
       d="m 56.73258,165.02754 v -2.66667 h 56 56 v 2.66667 2.66667 h -56 -56 z"
       style="fill:#ffca91;fill-opacity:1"
       id="path1-8"
       sodipodi:nodetypes="ccccccccc" /><path
       d="M 1.6073039,92.426658 V 59.4807 h 5.0523059 l 4.9952662,0.220185 V 92.646843 125.5928 L 6.6596098,125.37262 H 1.6073039 Z"
       style="fill:#ffca91;fill-opacity:1;stroke-width:1.05577"
       id="path1-8-3"
       sodipodi:nodetypes="ccccccccc" /></g></svg>
