<?xml version="1.0" encoding="UTF-8" standalone="no"?>
<!-- Created with Inkscape (http://www.inkscape.org/) -->

<svg
   version="1.1"
   id="svg1"
   width="313.53183"
   height="219.9169"
   viewBox="0 0 313.53183 219.9169"
   sodipodi:docname="lcarsburgerframe.svg"
   xml:space="preserve"
   inkscape:version="1.3.2 (091e20e, 2023-11-25)"
   xmlns:inkscape="http://www.inkscape.org/namespaces/inkscape"
   xmlns:sodipodi="http://sodipodi.sourceforge.net/DTD/sodipodi-0.dtd"
   xmlns="http://www.w3.org/2000/svg"
   xmlns:svg="http://www.w3.org/2000/svg"><defs
     id="defs1" /><sodipodi:namedview
     id="namedview1"
     pagecolor="#ffffff"
     bordercolor="#000000"
     borderopacity="0.25"
     inkscape:showpageshadow="2"
     inkscape:pageopacity="0.0"
     inkscape:pagecheckerboard="0"
     inkscape:deskcolor="#d1d1d1"
     inkscape:zoom="1.540167"
     inkscape:cx="160.69686"
     inkscape:cy="95.768838"
     inkscape:window-width="1920"
     inkscape:window-height="1011"
     inkscape:window-x="1600"
     inkscape:window-y="32"
     inkscape:window-maximized="1"
     inkscape:current-layer="g1" /><g
     inkscape:groupmode="layer"
     inkscape:label="Image"
     id="g1"
     transform="translate(-2.9681617,-1.9424831)"><path
       style="fill:#d596cf;fill-opacity:1"
       d="M 9.9709451,221.07158 C 4.4520173,220.20917 3.8669416,212.97391 3.6948613,209 L 3.5,204.5 H 160 316.5 l -0.1495,4.60532 c -0.18985,5.848 -2.47632,10.29183 -6.05334,11.76484 -2.05754,0.84729 -27.25571,1.08285 -95.29716,0.89085 L 122.5,221.5 122.19521,216.75 121.89042,212 H 94 66.109582 l -0.304791,4.75 -0.304791,4.75 -26.135162,0.26638 -24.352494,0.093 z M 3.3599366,20.495597 C 1.2441782,14.982018 8.0280211,5.5539584 15.76879,3.25 21.525808,1.5364843 63.094095,1.4940947 64.8,3.2 65.46,3.86 66,5.66 66,7.2 V 10 h 29 29 V 7.1224447 c 0,-1.5826554 0.61729,-3.3898639 1.37176,-4.0160189 1.00832,-0.8368263 24.78769,-1.0679815 89.75,-0.8724447 84.37024,0.2539548 88.55086,0.3517643 92.18469,2.1567459 5.37077,2.6677531 8.75354,7.470594 8.99554,12.77183 L 316.5,21.5 160.21981,21.753126 C 21.581573,21.977678 3.8741903,21.83572 3.3599366,20.495597 Z"
       id="path1"
       sodipodi:nodetypes="sscccssscccccccccssssscccssssscss" /></g></svg>
