<?xml version="1.0" encoding="UTF-8" standalone="no"?>
<!-- Created with Inkscape (http://www.inkscape.org/) -->

<svg
   version="1.1"
   id="svg1"
   width="213.33333"
   height="170.66667"
   viewBox="0 0 213.33333 170.66667"
   sodipodi:docname="lcarsframeblank.svg"
   xml:space="preserve"
   inkscape:version="1.3.2 (091e20e, 2023-11-25)"
   xmlns:inkscape="http://www.inkscape.org/namespaces/inkscape"
   xmlns:sodipodi="http://sodipodi.sourceforge.net/DTD/sodipodi-0.dtd"
   xmlns="http://www.w3.org/2000/svg"
   xmlns:svg="http://www.w3.org/2000/svg"><defs
     id="defs1" /><sodipodi:namedview
     id="namedview1"
     pagecolor="#ffffff"
     bordercolor="#000000"
     borderopacity="0.25"
     inkscape:showpageshadow="2"
     inkscape:pageopacity="0.0"
     inkscape:pagecheckerboard="0"
     inkscape:deskcolor="#d1d1d1"
     inkscape:zoom="3.2671876"
     inkscape:cx="101.15734"
     inkscape:cy="114.93065"
     inkscape:window-width="1920"
     inkscape:window-height="1011"
     inkscape:window-x="1600"
     inkscape:window-y="32"
     inkscape:window-maximized="1"
     inkscape:current-layer="g1" /><g
     inkscape:groupmode="layer"
     inkscape:label="Image"
     id="g1"><path
       d="m 170.47169,164.89027 v -2.73988 l 35.29779,-0.045 1.54168,0.9371 1.16052,1.84773 -0.6661,1.02948 -2.0361,1.29165 -35.29779,0.41881 z"
       style="fill:#ff9359;fill-opacity:1"
       id="path1-3"
       sodipodi:nodetypes="ccccccccc" /><path
       style="fill:#ffca91;fill-opacity:1"
       d="M 1.3993007,92.620605 11.571951,92.406207 Z"
       id="path4"
       sodipodi:nodetypes="ccc" /><path
       d="m 56.73258,165.02754 v -2.66667 h 56 56 v 2.66667 2.66667 h -56 -56 z"
       style="fill:#ffca91;fill-opacity:1"
       id="path1-8"
       sodipodi:nodetypes="ccccccccc" /><path
       d="M 0.46753304,37.871921 V 17.073426 L 1.581309,12.017488 4.301906,7.534943 7.898721,4.139117 l 5.350297,-1.882551 16.54859,0.127872 1.270456,0.04665 v 2.786329 l -0.164177,15.722246 h -0.549535 l -7.45587,0.08291 -0.443772,0.914219 -0.137568,3.245782 -0.07437,10.766519 v 22.895014 l -3.634409,0.0023 -18.06054196,-0.0771 z"
       style="fill:#ff9302;fill-opacity:1"
       id="path1-9-1"
       sodipodi:nodetypes="ccccccccccccccccccc" /><path
       d="m 9.592918,166.27322 -3.953185,-3.16118 -3.713093,-4.01402 -1.26759196,-4.1536 -0.005,-14.33334 -0.005,-14.33333 17.08753096,0.1058 4.68764,0.0679 v 14.08766 14.08765 l 0.241472,5.25192 1.502597,2.26576 6.78775,0.1679 2.359676,-0.0753 10.333333,0.0204 10.333333,0.0204 v 2.66667 2.66667 l -19.666666,-0.0304 -19.666666,-0.0304 z"
       style="fill:#ff9359;fill-opacity:1"
       id="path1-97-8"
       sodipodi:nodetypes="ccccccccccccccccccccc" /><path
       d="M 0.68339304,92.288907 V 59.342949 l 16.51288396,0.0864 4.995267,0.220185 v 32.945963 32.945953 l -4.995267,-0.22018 -16.51288396,-0.0864 z"
       style="fill:#ffca91;fill-opacity:1;stroke-width:1.05577"
       id="path1-8-3-7"
       sodipodi:nodetypes="ccccccccc" /></g></svg>
