<?xml version="1.0" encoding="UTF-8" standalone="no"?>
<svg
   version="1.1"
   x="0"
   y="0"
   width="220.00301"
   height="280.561"
   viewBox="0 0 220.003 280.561"
   id="svg1"
   sodipodi:docname="picorderOS_logo_splash.svg"
   inkscape:version="1.3.2 (091e20e, 2023-11-25)"
   xml:space="preserve"
   xmlns:inkscape="http://www.inkscape.org/namespaces/inkscape"
   xmlns:sodipodi="http://sodipodi.sourceforge.net/DTD/sodipodi-0.dtd"
   xmlns:xlink="http://www.w3.org/1999/xlink"
   xmlns="http://www.w3.org/2000/svg"
   xmlns:svg="http://www.w3.org/2000/svg"><defs
     id="defs1"><linearGradient
       id="linearGradient310"
       inkscape:collect="always"><stop
         style="stop-color:#ffb729;stop-opacity:1;"
         offset="0"
         id="stop311" /><stop
         style="stop-color:#ffb729;stop-opacity:0;"
         offset="1"
         id="stop312" /></linearGradient><linearGradient
       id="linearGradient14"
       inkscape:collect="always"><stop
         style="stop-color:#f7ad21;stop-opacity:1;"
         offset="0.19918287"
         id="stop14" /><stop
         style="stop-color:#f7ad21;stop-opacity:0;"
         offset="1"
         id="stop15" /></linearGradient><linearGradient
       id="linearGradient10"
       inkscape:collect="always"><stop
         style="stop-color:#fcc137;stop-opacity:1;"
         offset="0"
         id="stop11" /><stop
         style="stop-color:#fcc137;stop-opacity:0;"
         offset="1"
         id="stop12" /></linearGradient><linearGradient
       id="swatch7"
       inkscape:swatch="solid"><stop
         style="stop-color:#000000;stop-opacity:1;"
         offset="0"
         id="stop7" /></linearGradient><linearGradient
       inkscape:collect="always"
       xlink:href="#linearGradient10"
       id="linearGradient12"
       x1="403.26876"
       y1="-253.62356"
       x2="502.45676"
       y2="-253.02283"
       gradientUnits="userSpaceOnUse" /><linearGradient
       inkscape:collect="always"
       xlink:href="#linearGradient14"
       id="linearGradient15"
       x1="557.17529"
       y1="-269.05319"
       x2="498.4707"
       y2="-247.88425"
       gradientUnits="userSpaceOnUse"
       spreadMethod="pad" /><linearGradient
       inkscape:collect="always"
       xlink:href="#linearGradient310"
       id="linearGradient312"
       x1="418.63663"
       y1="-75.720398"
       x2="453.82385"
       y2="-109.88163"
       gradientUnits="userSpaceOnUse"
       spreadMethod="reflect" /><filter
       inkscape:collect="always"
       style="color-interpolation-filters:sRGB"
       id="filter315"
       x="-0.082566649"
       y="-0.061394644"
       width="1.1651333"
       height="1.1227893"><feGaussianBlur
         inkscape:collect="always"
         stdDeviation="7.3021337"
         id="feGaussianBlur315" /></filter></defs><sodipodi:namedview
     id="namedview1"
     pagecolor="#ffffff"
     bordercolor="#000000"
     borderopacity="0.25"
     inkscape:showpageshadow="2"
     inkscape:pageopacity="0.0"
     inkscape:pagecheckerboard="0"
     inkscape:deskcolor="#d1d1d1"
     inkscape:zoom="2.1930142"
     inkscape:cx="157.77372"
     inkscape:cy="138.394"
     inkscape:window-width="1920"
     inkscape:window-height="1011"
     inkscape:window-x="1600"
     inkscape:window-y="32"
     inkscape:window-maximized="1"
     inkscape:current-layer="Layer_1" /><g
     id="Layer_1"
     transform="translate(-375.31799,303.65016)"><path
       d="m 444.44299,-297.59348 c 6.41701,-2.1203 7.46178,1.08766 10.65983,2.12142 6.41703,-1.03376 8.53733,2.17418 11.74639,5.32936 l 3.15297,-0.002 c 10.66093,5.33266 14.94664,17.07905 17.07796,23.49497 2.1214,-5.32937 7.45077,-18.16231 17.07575,-23.49277 l 3.15296,-0.002 c 3.22117,-3.15297 5.33158,-6.36092 11.74859,-5.32716 3.19806,-1.04476 4.24282,-4.24172 10.65874,-2.11042 3.20906,-1.04475 6.41811,-4.26371 11.74639,0 4.24282,-2.1313 8.49663,-2.1313 13.82489,1.06566 5.33048,-1.06566 7.49478,0 8.52744,2.13131 1.08764,8e-4 9.62606,-1.08655 12.79222,4.24281 8.52744,-1.04366 11.7354,5.33047 8.52634,11.74639 1.08764,3.20906 3.20906,6.41701 -1.04476,11.74638 1.04586,3.15517 8e-4,6.36423 -3.19696,10.65874 1.04476,4.24282 -1.08764,7.44087 -4.28462,9.57218 0,6.41812 -5.33047,9.5722 -7.46177,10.65985 -1.04476,3.19805 -2.1214,6.41701 -9.57217,8.52742 -1.08655,5.32937 -13.50158,9.16968 -20.00658,14.55404 34.16139,20.03187 52.01796,53.26948 53.98541,92.26978 8.1e-4,58.612048 -47.51451,106.126566 -106.12655,106.126566 -58.61207,0 -106.12768,-47.514518 -106.12768,-106.126566 0.58287,-41.61219 20.65653,-69.76458 53.97442,-92.26098 -6.4731,-5.42834 -11.06233,-7.10436 -11.06233,-7.10436 -4.28242,-1.08436 -8.54613,-2.12911 -9.61288,-7.45848 -7.46068,-2.11041 -8.54833,-5.32937 -9.59308,-8.52742 -1.06565,-2.13131 -7.43979,-5.32937 -6.39503,-10.65985 -4.26371,-3.19696 -5.32937,-6.41591 -4.26371,-10.65873 -4.28461,-3.20796 -5.32937,-7.45078 -3.19807,-9.57219 -4.24171,-6.41591 -3.20795,-8.54832 -1.08764,-11.74638 -3.15407,-6.41592 8.1e-4,-12.78015 9.61507,-11.74639 3.21896,-5.32936 16.00021,-7.43978 21.32958,-6.37412 3.20796,-3.19696 7.45077,-3.19696 11.69249,-1.06566"
       style="display:inline;opacity:0.490543;mix-blend-mode:color;fill:#57ffdb;fill-opacity:1;fill-rule:evenodd;stroke-width:1.09975;filter:url(#filter315)"
       id="path1-3"
       inkscape:label="Mask"
       transform="matrix(0.99304233,0,0,0.94943542,2.53101,-10.92105)" /><path
       d="m 443.01976,-280.41396 c -2.917,-1.928 -4.846,-3.857 -11.621,-4.846 1.929,1.939 4.846,2.918 2.917,4.846 -2.927,-0.939 -6.823,-1.928 -10.681,-2.917 1.929,0.989 3.868,2.918 1.929,3.906 -2.917,-0.988 -7.763,-1.928 -12.61,-0.989 l 2.925,3.904 h -11.631 c 0.991,1.922 2.92,4.849 3.869,8.707 l -4.848,-0.002 c 1.97,4.848 6.816,5.836 7.756,7.756 -1.928,0.949 -3.857,0.949 -5.786,0 1.929,3.877 4.846,5.796 7.715,9.692 l -4.848,-0.002 c 2.929,1.94 5.837,4.848 8.745,6.786 -0.97,0.98 -2.908,0.98 -4.847,0.979 3.877,2.879 7.774,4.847 11.631,6.785 -1.938,0.94 -2.907,0.94 -4.846,0.94 2.918,2.928 7.764,3.897 12.61,5.835 -2.188,1.852 -0.913,1.167 -3.887,1.934 3.728,1.627 7.805,0.869 11.641,1.933 0,0.98 -0.979,1.968 -2.908,2.908 7.764,0.989 28.089,0 31.995,-15.479 -7.764,-8.752 -21.362,-18.444 -45.594,-31.054 18.436,5.835 35.901,14.539 49.451,26.208 16.468,-7.773 4.847,-27.158 -2.917,-34.912 0,1.929 0,3.858 -0.94,3.858 -1.977,-2.869 -4.846,-5.796 -7.774,-8.704 0.001,1.939 0.95,3.858 -0.969,4.846 -1.938,-2.917 -4.846,-4.846 -6.785,-6.775 0.989,2.908 10e-4,3.858 -0.988,4.846 -2.869,-1.928 -4.846,-3.896 -9.693,-5.835 z"
       style="mix-blend-mode:normal;fill:url(#linearGradient12)"
       id="path1-5"
       inkscape:label="LLeaf" /><path
       d="m 531.25884,-280.42342 c -1.968,-1.938 0,-2.927 0.94,-4.846 -4.846,1.919 -6.775,3.897 -9.693,5.815 -0.949,-0.968 -2.917,-1.918 -0.949,-4.846 -3.897,1.939 -5.825,3.878 -7.754,6.785 -1.929,-1.938 -0.989,-2.907 -0.989,-4.846 -2.917,2.917 -4.846,5.835 -7.764,8.704 10e-4,-0.95 -0.94,-1.919 -0.94,-3.858 -8.752,7.764 -19.384,27.149 -3.906,34.912 13.589,-11.669 31.055,-19.385 49.451,-26.208 -24.231,12.61 -37.791,22.302 -45.545,31.054 3.858,15.479 24.231,15.479 31.995,15.479 -0.989,-0.94 -2.927,-1.928 -2.927,-2.917 1.938,-1.929 8.723,0 13.569,-2.869 -1.938,0 -2.927,-0.989 -3.877,-1.978 3.877,-0.939 8.724,-2.868 11.631,-4.846 -0.988,0 -2.917,0.989 -3.858,-0.94 3.858,-1.928 8.70399,-3.906 11.61199,-6.775 -1.919,0 -3.89599,0 -4.84599,-0.989 2.92699,-2.917 5.79599,-4.846 8.72299,-7.763 -2.927,0.989 -3.877,0.989 -4.846,0 2.908,-2.917 5.815,-4.846 7.753,-8.704 -2.917,0.94 -4.845,0.94 -5.835,0 0.99,-1.929 4.847,-2.917 6.824,-8.752 l -4.848,-0.003 c 0.942,-3.855 2.871,-5.793 4.848,-8.701 l -11.66099,-0.002 2.90699,-2.917 c -4.84399,-1.927 -8.70099,0.002 -12.60799,0.99 -1.928,-0.988 0,-1.928 1.977,-3.906 -3.896,0.989 -7.773,1.978 -10.68,2.927 -0.989,-1.938 2.19642,-3.07248 3.18542,-4.99148 l -7.81521,2.46133 z"
       style="fill:url(#linearGradient15)"
       id="path1-2"
       sodipodi:nodetypes="cccccccccccccccccccccccccccccccccc"
       inkscape:label="RLeaf" /><path
       d="m 567.3038,-155.86159 c -8.04699,29.405 -35.18799,47.868 -59.46099,63.528003 -26.523,15.134 -50.627,23.977 -81.134,21.843 15.678,17.415 37.562,24.748 60.404,25.901 46.737,0 84.62399,-37.886 84.62299,-84.622003 -0.276,-8.969 -0.889,-18.266 -4.432,-26.65 z m -95.62099,1.489 c -37.984,22.14 -61.868,51.941 -53.346,66.561003 8.522,14.622 46.223,8.526 84.207,-13.614003 37.985,-22.14 61.86799,-51.94 53.346,-66.562 -4.972,-7.298 -13.67669,-6.8279 -22.0013,-8.0499 l -28.7697,4.01387 z m 15.43,-59.463 c -46.735,0.001 -84.622,37.888 -84.622,84.624 0.296,8.9 0.833,18.132 4.355,26.467 7.871,-28.46 36.176,-45.751 59.537,-60.72 28.746,-14.511 52.598,-26.389 85.152,-20.453 -16.753,-19.492 -39.144,-28.64 -64.422,-29.918 z"
       style="fill:url(#linearGradient312);fill-opacity:1;stroke:none;stroke-opacity:1"
       id="path1-9"
       sodipodi:nodetypes="ccccccccccccccccccc"
       inkscape:label="PiBody" /><path
       d="m 441.089,-292.047 c 2.93,0.003 4.849,0.991 6.787,1.931 5.835,-1.928 6.785,0.989 9.693,1.929 5.835,-0.94 7.763,1.977 10.681,4.846 l 2.867,-0.002 c 9.694,4.849 13.591,15.53 15.529,21.364 1.929,-4.846 6.775,-16.515 15.527,-21.362 l 2.867,-0.002 c 2.929,-2.867 4.848,-5.784 10.683,-4.844 2.908,-0.95 3.858,-3.857 9.692,-1.919 2.918,-0.95 5.836,-3.877 10.681,0 3.858,-1.938 7.726,-1.938 12.571,0.969 4.847,-0.969 6.815,0 7.754,1.938 0.989,0.001 8.753,-0.988 11.632,3.858 7.754,-0.949 10.671,4.847 7.753,10.681 0.989,2.918 2.918,5.835 -0.95,10.681 0.951,2.869 10e-4,5.787 -2.907,9.692 0.95,3.858 -0.989,6.766 -3.896,8.704 0,5.836 -4.847,8.704 -6.785,9.693 -0.95,2.908 -1.929,5.835 -8.704,7.754 -0.988,4.846 -4.846,5.796 -8.743,6.785 l -0.074,-0.003 c -6.591,3.697 -3.46,1.556 -9.375,6.452 31.063,18.215 47.3,48.438 49.089,83.901 10e-4,53.296 -43.205,96.501 -96.501,96.501 -53.296,0 -96.502,-43.205 -96.502,-96.501 0.53,-37.838 18.783,-63.437 49.079,-83.893 -5.886,-4.936 -2.756,-2.794 -9.367,-6.458 l -0.692,-0.002 c -3.894,-0.986 -7.771,-1.936 -8.741,-6.782 -6.784,-1.919 -7.773,-4.846 -8.723,-7.754 -0.969,-1.938 -6.765,-4.846 -5.815,-9.693 -3.877,-2.907 -4.846,-5.834 -3.877,-9.692 -3.896,-2.917 -4.846,-6.775 -2.908,-8.704 -3.857,-5.834 -2.917,-7.773 -0.989,-10.681 -2.868,-5.834 10e-4,-11.621 8.743,-10.681 2.927,-4.846 10.643,-3.857 11.631,-3.858 0.979,-0.988 2.918,-2.907 7.764,-1.938 2.917,-2.907 6.775,-2.907 10.632,-0.969 1.978,-0.95 2.927,-1.938 3.896,-1.939 z m 126.061,136.396 c -8.047,29.405 -35.188,47.868 -59.461,63.528 -26.523,15.134 -50.627,23.977 -81.134,21.843 15.678,17.415 37.562,24.748 60.404,25.901 46.737,0 84.624,-37.886 84.623,-84.622 -0.276,-8.969 -0.889,-18.266 -4.432,-26.65 z m -31.787,-20.082 c -23.208,1.008 -43.772,10.897 -63.834,21.571 -37.984,22.14 -61.868,51.941 -53.346,66.561 8.522,14.622 46.223,8.526 84.207,-13.614 37.985,-22.14 61.868,-51.94 53.346,-66.562 -4.972,-7.298 -12.15,-6.733 -20.373,-7.955 z m -48.404,-37.892 c -46.735,0.001 -84.622,37.888 -84.622,84.624 0.296,8.9 0.833,18.132 4.355,26.467 7.871,-28.46 36.176,-45.751 59.537,-60.72 28.746,-14.511 52.598,-26.389 85.152,-20.453 -16.753,-19.492 -39.144,-28.64 -64.422,-29.918 z m -44.92,-71.647 c 0.991,1.941 2.93,2.92 0.991,4.848 -2.917,-1.928 -4.846,-3.857 -11.621,-4.846 1.929,1.939 4.846,2.918 2.917,4.846 -2.927,-0.939 -6.823,-1.928 -10.681,-2.917 1.929,0.989 3.868,2.918 1.929,3.906 -2.917,-0.988 -7.763,-1.928 -12.61,-0.989 l 2.925,3.904 h -11.631 c 0.991,1.922 2.92,4.849 3.869,8.707 l -4.848,-0.002 c 1.97,4.848 6.816,5.836 7.756,7.756 -1.928,0.949 -3.857,0.949 -5.786,0 1.929,3.877 4.846,5.796 7.715,9.692 l -4.848,-0.002 c 2.929,1.94 5.837,4.848 8.745,6.786 -0.97,0.98 -2.908,0.98 -4.847,0.979 3.877,2.879 7.774,4.847 11.631,6.785 -1.938,0.94 -2.907,0.94 -4.846,0.94 2.918,2.928 7.764,3.897 12.61,5.835 -2.188,1.852 -0.913,1.167 -3.887,1.934 3.728,1.627 7.805,0.869 11.641,1.933 0,0.98 -0.979,1.968 -2.908,2.908 7.764,0.989 28.089,0 31.995,-15.479 -7.764,-8.752 -21.362,-18.444 -45.594,-31.054 18.436,5.835 35.901,14.539 49.451,26.208 16.468,-7.773 4.847,-27.158 -2.917,-34.912 0,1.929 0,3.858 -0.94,3.858 -1.977,-2.869 -4.846,-5.796 -7.774,-8.704 10e-4,1.939 0.95,3.858 -0.969,4.846 -1.938,-2.917 -4.846,-4.846 -6.785,-6.775 0.989,2.908 0.001,3.858 -0.988,4.846 -2.869,-1.928 -4.846,-3.896 -9.693,-5.835 z m 100.821,0.01 c -6.773,1.921 -8.75,2.91 -11.619,4.848 -1.968,-1.938 0,-2.927 0.94,-4.846 -4.846,1.919 -6.775,3.897 -9.693,5.815 -0.949,-0.968 -2.917,-1.918 -0.949,-4.846 -3.897,1.939 -5.825,3.878 -7.754,6.785 -1.929,-1.938 -0.989,-2.907 -0.989,-4.846 -2.917,2.917 -4.846,5.835 -7.764,8.704 0.001,-0.95 -0.94,-1.919 -0.94,-3.858 -8.752,7.764 -19.384,27.149 -3.906,34.912 13.589,-11.669 31.055,-19.385 49.451,-26.208 -24.231,12.61 -37.791,22.302 -45.545,31.054 3.858,15.479 24.231,15.479 31.995,15.479 -0.989,-0.94 -2.927,-1.928 -2.927,-2.917 1.938,-1.929 8.723,0 13.569,-2.869 -1.938,0 -2.927,-0.989 -3.877,-1.978 3.877,-0.939 8.724,-2.868 11.631,-4.846 -0.988,0 -2.917,0.989 -3.858,-0.94 3.858,-1.928 8.704,-3.906 11.612,-6.775 -1.919,0 -3.896,0 -4.846,-0.989 2.927,-2.917 5.796,-4.846 8.723,-7.763 -2.927,0.989 -3.877,0.989 -4.846,0 2.908,-2.917 5.815,-4.846 7.753,-8.704 -2.917,0.94 -4.845,0.94 -5.835,0 0.99,-1.929 4.847,-2.917 6.824,-8.752 l -4.848,-0.003 c 0.942,-3.855 2.871,-5.793 4.848,-8.701 l -11.661,-0.002 2.907,-2.917 c -4.844,-1.927 -8.701,0.002 -12.608,0.99 -1.928,-0.988 0,-1.928 1.977,-3.906 -3.896,0.989 -7.773,1.978 -10.68,2.927 -0.989,-1.938 1.928,-2.927 2.917,-4.846 z"
       id="path1"
       style="display:inline;fill:#000000;fill-opacity:1"
       sodipodi:nodetypes="ccccccccccccccccccccccccsccccccccccccccccccccccccccccccccccccccccccccccccccccccccccccccccccccccccccccccccccccccccccccccccccccccc"
       inkscape:label="PiLogo" /></g></svg>
