<?xml version="1.0" encoding="UTF-8"?>
<!DOCTYPE svg PUBLIC "-//W3C//DTD SVG 1.1//EN" "http://www.w3.org/Graphics/SVG/1.1/DTD/svg11.dtd">
<svg version="1.1" xmlns="http://www.w3.org/2000/svg" xmlns:xlink="http://www.w3.org/1999/xlink" x="0" y="0" width="193.003" height="259.561" viewBox="0, 0, 193.003, 259.561">
  <g id="Layer_1" transform="translate(-390.458, 292.06)">
    <path d="M441.089,-292.047 C444.019,-292.044 445.938,-291.056 447.876,-290.116 C453.711,-292.044 454.661,-289.127 457.569,-288.187 C463.404,-289.127 465.332,-286.21 468.25,-283.341 L471.117,-283.343 C480.811,-278.494 484.708,-267.813 486.646,-261.979 C488.575,-266.825 493.421,-278.494 502.173,-283.341 L505.04,-283.343 C507.969,-286.21 509.888,-289.127 515.723,-288.187 C518.631,-289.137 519.581,-292.044 525.415,-290.106 C528.333,-291.056 531.251,-293.983 536.096,-290.106 C539.954,-292.044 543.822,-292.044 548.667,-289.137 C553.514,-290.106 555.482,-289.137 556.421,-287.199 C557.41,-287.198 565.174,-288.187 568.053,-283.341 C575.807,-284.29 578.724,-278.494 575.806,-272.66 C576.795,-269.742 578.724,-266.825 574.856,-261.979 C575.807,-259.11 574.857,-256.192 571.949,-252.287 C572.899,-248.429 570.96,-245.521 568.053,-243.583 C568.053,-237.747 563.206,-234.879 561.268,-233.89 C560.318,-230.982 559.339,-228.055 552.564,-226.136 C551.576,-221.29 547.718,-220.34 543.821,-219.351 L543.747,-219.354 C537.156,-215.657 540.287,-217.798 534.372,-212.902 C565.435,-194.687 581.672,-164.464 583.461,-129.001 C583.462,-75.705 540.256,-32.5 486.96,-32.5 C433.664,-32.5 390.458,-75.705 390.458,-129.001 C390.988,-166.839 409.241,-192.438 439.537,-212.894 C433.651,-217.83 436.781,-215.688 430.17,-219.352 L429.478,-219.354 C425.584,-220.34 421.707,-221.29 420.737,-226.136 C413.953,-228.055 412.964,-230.982 412.014,-233.89 C411.045,-235.828 405.249,-238.736 406.199,-243.583 C402.322,-246.49 401.353,-249.417 402.322,-253.275 C398.426,-256.192 397.476,-260.05 399.414,-261.979 C395.557,-267.813 396.497,-269.752 398.425,-272.66 C395.557,-278.494 398.426,-284.281 407.168,-283.341 C410.095,-288.187 417.811,-287.198 418.799,-287.199 C419.778,-288.187 421.717,-290.106 426.563,-289.137 C429.48,-292.044 433.338,-292.044 437.195,-290.106 C439.173,-291.056 440.122,-292.044 441.091,-292.045 L441.089,-292.047 z M567.15,-155.651 C559.103,-126.246 531.962,-107.783 507.689,-92.123 C481.166,-76.989 457.062,-68.146 426.555,-70.28 C442.233,-52.865 464.117,-45.532 486.959,-44.379 C533.696,-44.379 571.583,-82.265 571.582,-129.001 C571.306,-137.97 570.693,-147.267 567.15,-155.651 z M535.363,-175.733 C512.155,-174.725 491.591,-164.836 471.529,-154.162 C433.545,-132.022 409.661,-102.221 418.183,-87.601 C426.705,-72.979 464.406,-79.075 502.39,-101.215 C540.375,-123.355 564.258,-153.155 555.736,-167.777 C550.764,-175.075 543.586,-174.51 535.363,-175.732 z M486.959,-213.625 C440.224,-213.624 402.337,-175.737 402.337,-129.001 C402.633,-120.101 403.17,-110.869 406.692,-102.534 C414.563,-130.994 442.868,-148.285 466.229,-163.254 C494.975,-177.765 518.827,-189.643 551.381,-183.707 C534.628,-203.199 512.237,-212.347 486.959,-213.625 z M442.039,-285.272 C443.03,-283.331 444.969,-282.352 443.03,-280.424 C440.113,-282.352 438.184,-284.281 431.409,-285.27 C433.338,-283.331 436.255,-282.352 434.326,-280.424 C431.399,-281.363 427.503,-282.352 423.645,-283.341 C425.574,-282.352 427.513,-280.423 425.574,-279.435 C422.657,-280.423 417.811,-281.363 412.964,-280.424 L415.889,-276.52 L404.258,-276.52 C405.249,-274.598 407.178,-271.671 408.127,-267.813 L403.279,-267.815 C405.249,-262.967 410.095,-261.979 411.035,-260.059 C409.107,-259.11 407.178,-259.11 405.249,-260.059 C407.178,-256.182 410.095,-254.263 412.964,-250.367 L408.116,-250.369 C411.045,-248.429 413.953,-245.521 416.861,-243.583 C415.891,-242.603 413.953,-242.603 412.014,-242.604 C415.891,-239.725 419.788,-237.757 423.645,-235.819 C421.707,-234.879 420.738,-234.879 418.799,-234.879 C421.717,-231.951 426.563,-230.982 431.409,-229.044 C429.221,-227.192 430.496,-227.877 427.522,-227.11 C431.25,-225.483 435.327,-226.241 439.163,-225.177 C439.163,-224.197 438.184,-223.209 436.255,-222.269 C444.019,-221.28 464.344,-222.269 468.25,-237.748 C460.486,-246.5 446.888,-256.192 422.656,-268.802 C441.092,-262.967 458.557,-254.263 472.107,-242.594 C488.575,-250.367 476.954,-269.752 469.19,-277.506 C469.19,-275.577 469.19,-273.648 468.25,-273.648 C466.273,-276.517 463.404,-279.444 460.476,-282.352 C460.477,-280.413 461.426,-278.494 459.507,-277.506 C457.569,-280.423 454.661,-282.352 452.722,-284.281 C453.711,-281.373 452.723,-280.423 451.734,-279.435 C448.865,-281.363 446.888,-283.331 442.041,-285.27 L442.039,-285.272 z M542.86,-285.262 C536.087,-283.341 534.11,-282.352 531.241,-280.414 C529.273,-282.352 531.241,-283.341 532.181,-285.26 C527.335,-283.341 525.406,-281.363 522.488,-279.445 C521.539,-280.413 519.571,-281.363 521.539,-284.291 C517.642,-282.352 515.714,-280.413 513.785,-277.506 C511.856,-279.444 512.796,-280.413 512.796,-282.352 C509.879,-279.435 507.95,-276.517 505.032,-273.648 C505.033,-274.598 504.092,-275.567 504.092,-277.506 C495.34,-269.742 484.708,-250.357 500.186,-242.594 C513.775,-254.263 531.241,-261.979 549.637,-268.802 C525.406,-256.192 511.846,-246.5 504.092,-237.748 C507.95,-222.269 528.323,-222.269 536.087,-222.269 C535.098,-223.209 533.16,-224.197 533.16,-225.186 C535.098,-227.115 541.883,-225.186 546.729,-228.055 C544.791,-228.055 543.802,-229.044 542.852,-230.033 C546.729,-230.972 551.576,-232.901 554.483,-234.879 C553.495,-234.879 551.566,-233.89 550.625,-235.819 C554.483,-237.747 559.329,-239.725 562.237,-242.594 C560.318,-242.594 558.341,-242.594 557.391,-243.583 C560.318,-246.5 563.187,-248.429 566.114,-251.346 C563.187,-250.357 562.237,-250.357 561.268,-251.346 C564.176,-254.263 567.083,-256.192 569.021,-260.05 C566.104,-259.11 564.176,-259.11 563.186,-260.05 C564.176,-261.979 568.033,-262.967 570.01,-268.802 L565.162,-268.805 C566.104,-272.66 568.033,-274.598 570.01,-277.506 L558.349,-277.508 L561.256,-280.425 C556.412,-282.352 552.555,-280.423 548.648,-279.435 C546.72,-280.423 548.648,-281.363 550.625,-283.341 C546.729,-282.352 542.852,-281.363 539.945,-280.414 C538.956,-282.352 541.873,-283.341 542.862,-285.26 L542.86,-285.262 z" fill="#000000"/>
  </g>
</svg>
