<?xml version="1.0" encoding="UTF-8" standalone="no"?>
<!-- Created with Inkscape (http://www.inkscape.org/) -->

<svg
   width="11.99461mm"
   height="24.15925mm"
   viewBox="0 0 11.99461 24.15925"
   version="1.1"
   id="svg1"
   xml:space="preserve"
   inkscape:version="1.3.2 (091e20e, 2023-11-25)"
   sodipodi:docname="tr109.svg"
   xmlns:inkscape="http://www.inkscape.org/namespaces/inkscape"
   xmlns:sodipodi="http://sodipodi.sourceforge.net/DTD/sodipodi-0.dtd"
   xmlns="http://www.w3.org/2000/svg"
   xmlns:svg="http://www.w3.org/2000/svg"><sodipodi:namedview
     id="namedview1"
     pagecolor="#ffffff"
     bordercolor="#000000"
     borderopacity="0.25"
     inkscape:showpageshadow="2"
     inkscape:pageopacity="0.0"
     inkscape:pagecheckerboard="0"
     inkscape:deskcolor="#d1d1d1"
     inkscape:document-units="mm"
     inkscape:zoom="5.7370931"
     inkscape:cx="5.9263462"
     inkscape:cy="46.975009"
     inkscape:window-width="1920"
     inkscape:window-height="1011"
     inkscape:window-x="1600"
     inkscape:window-y="32"
     inkscape:window-maximized="1"
     inkscape:current-layer="layer1" /><defs
     id="defs1" /><g
     inkscape:label="Ebene 1"
     inkscape:groupmode="layer"
     id="layer1"
     transform="translate(-112.50063,-136.864)"><a
       id="a3"
       style="fill:#f89200;fill-opacity:0.768627"><path
         style="fill:#f89200;fill-opacity:0.768627"
         d="m 118.49768,136.864 c -2.489,0 -4.97765,0.0825 -5.37952,0.24753 l -0.61753,0.25321 v 11.14713 11.1466 l 0.36535,0.68213 0.36483,0.68265 h 5.26687 5.26686 l 0.36535,-0.68265 0.36535,-0.68213 v -11.1466 -11.14713 l -0.61753,-0.25321 c -0.40187,-0.16503 -2.89105,-0.24753 -5.38003,-0.24753 z m 0,0.24339 c 1.02305,0 2.04645,0.0347 2.82256,0.10336 l 2.82205,0.24959 v 0.84543 0.84543 h -5.64461 -5.6441 v -0.84543 -0.84543 l 2.82205,-0.24959 c 0.77611,-0.0687 1.79899,-0.10336 2.82205,-0.10336 z m -2.62103,2.33216 h 0.67283 l -0.0109,0.63562 -0.009,0.85525 -0.009,0.3116 c -0.005,0.19371 0.007,0.62292 -0.005,0.24753 -0.36455,0.0247 -2.12442,0.032 -2.12442,0.032 v -1.04024 -1.03973 z m -3.02307,0.0641 h 0.67282 0.67231 l -0.0109,0.63562 -0.009,0.85576 -0.014,0.55914 c -0.36455,0.0248 -1.31103,0.0295 -1.31103,0.0295 v -1.03973 z m 3.88038,0 h 3.70417 3.70416 v 1.05833 c 0,0.58209 -0.0566,0.89243 -0.11834,0.91623 -0.14091,0.0544 -1.91731,0.014 -3.8101,0.002 l -3.49126,-0.0222 0.0114,-1.0852 z m -3.175,2.46807 h 0.54984 l 0.68471,0.0112 4.3217,-0.005 4.32118,-0.005 v 0.35243 0.35295 h -3.52743 l -5.99954,0.0198 c 0.0815,1.63363 0.0196,2.04781 0,2.82205 v 2.82257 l 5.39338,-0.0198 1.82527,0.0159 c -0.0152,0.88118 -0.005,1.90508 -0.0187,2.46201 l -4.91186,-0.037 -1.08568,-0.005 h -1.5875 l 0.0346,-4.72994 z m -0.56172,0.41754 c 0.0281,0.004 0.0591,0.0219 0.0915,0.0543 0.12935,0.12936 0.12935,0.34091 0,0.47026 -0.12935,0.12936 -0.23512,0.0236 -0.23512,-0.23513 0,-0.19402 0.0593,-0.30206 0.14366,-0.28939 z m 10.93628,0 c 0.0281,0.004 0.0586,0.0219 0.0909,0.0543 0.12936,0.12936 0.12936,0.34091 0,0.47026 -0.12935,0.12936 -0.23513,0.0236 -0.23513,-0.23513 0,-0.19402 0.0598,-0.30206 0.14418,-0.28939 z m -0.2837,0.73691 0.51573,0.0171 -0.0233,3.9455 c -2e-5,2.03704 -0.004,3.85669 -0.0373,3.7658 l -1.22225,-0.0295 0.0248,-5.35481 0.0248,-2.28875 z m -0.96377,0.0346 0.045,2.34043 -0.0191,2.53604 -0.97001,0.003 -1.34824,-0.002 c -1.3423,0 -2.03,0.0118 -2.47168,0.008 l -1.25419,-0.0129 0.0284,-2.54507 -0.0294,-2.32714 0.83345,0.011 h 2.64583 z m -9.67951,0.35763 c 0.0825,-0.0152 0.17682,1.14813 0.22427,3.50056 0.0382,1.89428 -0.031,3.54505 -0.15399,3.668 -0.12295,0.12296 -0.22324,-1.49628 -0.22324,-3.59823 0,-2.3612 0.0704,-3.55514 0.15296,-3.57033 z m 5.49114,6.96082 c -0.35168,0 -0.70318,0.0206 -0.96997,0.061 -0.53357,0.0808 -0.0972,0.14676 0.96997,0.14676 1.06715,0 1.50406,-0.0659 0.97048,-0.14676 -0.26679,-0.0404 -0.61881,-0.061 -0.97048,-0.061 z m 4.82141,0.63717 0.478,0.0119 0.3452,-0.0109 v 3.80649 3.80648 h -5.64461 -5.6441 v -7.20989 l 0.0253,-0.38654 0.6475,-0.0145 z m -9.83713,1.42523 -0.0971,0.43305 c -0.13839,0.61743 0.0167,2.20382 0.18914,2.20762 l -0.17415,-1.55753 0.13952,-1.00045 5.06378,0.007 5.05085,-0.01 0.13849,1.11207 -0.16949,1.44746 c 0.17129,-0.0202 0.33338,-1.41144 0.21083,-2.0283 l -0.12143,-0.61082 h -5.11545 z m 10.14099,2.63912 c -0.001,1.5e-4 -0.002,0.002 -0.004,0.002 h -10.04487 l -5.1e-4,-5.2e-4 0.008,0.0708 4.97179,0.009 5.06067,-0.005 z m -10.24021,1.08004 -0.0971,0.43304 c -0.13856,0.61817 0.0169,1.85984 0.18965,1.85984 h 10.04487 c 0.17268,0 0.3379,-1.0607 0.21446,-1.68207 l -0.12144,-0.61081 h -5.11545 z m 10.17199,0.0796 0.1385,1.11207 -0.17829,1.01803 -5.06067,-0.006 -4.97179,0.0103 -0.1819,-1.13119 0.13952,-1.00046 5.06378,0.007 z m -10.38748,2.88303 c 0.0681,-0.007 0.15165,0.0312 0.2465,0.12609 0.1142,0.11416 0.14891,0.49741 0.0775,0.85214 l -0.1297,0.64544 -0.26252,-0.66818 c -0.19975,-0.50827 -0.13602,-0.93434 0.0682,-0.95549 z m 2.86133,0.0362 h 0.52916 0.52917 v 0.70538 0.70539 h -0.52917 -0.52916 v -0.70539 z m 7.76076,0 c 0.19403,0 0.35295,0.14919 0.35295,0.33176 0,0.18258 -0.15892,0.42992 -0.35295,0.54984 -0.19403,0.11992 -0.35243,-0.0293 -0.35243,-0.33176 0,-0.30249 0.1584,-0.54984 0.35243,-0.54984 z m -9.34826,0.35243 c 0.097,0 0.17621,0.0797 0.17621,0.17674 0,0.097 -0.0792,0.17621 -0.17621,0.17621 -0.097,0 -0.17674,-0.0792 -0.17674,-0.17621 0,-0.097 0.0797,-0.17674 0.17674,-0.17674 z m 0.8816,0 c 0.19403,0 0.35295,0.15892 0.35295,0.35295 0,0.19403 -0.15892,0.35295 -0.35295,0.35295 -0.19403,0 -0.35244,-0.15892 -0.35244,-0.35295 0,-0.19403 0.15841,-0.35295 0.35244,-0.35295 z m 2.11666,0 h 2.82257 2.82205 v 0.35295 0.35295 h -2.82205 -2.82257 v -0.35295 z m 3.92632,-11.25049 h 0.67282 0.67231 l -0.0109,0.63562 -0.009,0.85576 -0.023,0.91771 c -0.36455,0.0248 -1.31103,0.0295 -1.31103,0.0295 l 0.009,-1.3983 z m -5.01054,-5.35942 c 0.009,0.0815 0.0351,0.39738 -0.001,0.52202 -0.36455,0.0247 -2.11401,0.0149 -2.11401,0.0149 0.006,-0.57107 -0.0193,-0.4397 -0.013,-0.54102 0.71944,-0.001 1.40871,0.004 2.12815,0.004 z m -0.044,1.45326 c 0.009,0.0815 0.0351,0.39738 -0.001,0.52202 -0.36455,0.0247 -2.11401,0.015 -2.11401,0.015 -0.007,-0.78694 -0.0193,-0.4397 -0.013,-0.54102 0.71944,-0.001 1.40871,0.004 2.12815,0.004 z m 0.029,1.47188 c 0.009,0.0815 0.0351,0.39738 -0.001,0.52202 -0.36455,0.0247 -2.11401,0.015 -2.11401,0.015 0.006,-0.57108 -0.0193,-0.4397 -0.013,-0.54102 0.71944,-0.001 1.40871,0.004 2.12815,0.004 z m -0.0115,1.2913 c 0.009,0.0815 0.0351,0.39738 -0.001,0.52202 -0.36455,0.0247 -2.11401,0.015 -2.11401,0.015 0.006,-0.57108 -0.0193,-0.4397 -0.013,-0.54102 0.71944,-0.001 1.40871,0.004 2.12815,0.004 z"
         id="path3"
         sodipodi:nodetypes="scccccccccccccsscccccccccsccccccccccccccccccccccscccccccccccccccccccccccccsssccccssccccccccccccccccccccccssssssssssccccccccccccsccccccccccccscccccccssscccccccccccccsccccsscccccccccssssssssssssssscccccccccccccccccccccccccccccccccccccccccc" /></a><path
       style="fill:#000000"
       id="path2"
       d="" /><path
       style="fill:#000000"
       id="path1"
       d="" /></g></svg>
